<svg width="70" height="162" viewBox="0 0 70 162" fill="none" xmlns="http://www.w3.org/2000/svg">
<path fill-rule="evenodd" clip-rule="evenodd" d="M41.4147 13.5301C42.9389 10.135 44.7249 5.98299 45.016 1.85697C43.6588 2.22949 41.9082 3.95079 40.7864 4.83037C38.0791 6.95359 35.4412 9.89138 34.2393 13.5618C33.2168 16.6856 33.6336 17.2356 34.212 20.1621C33.3761 20.4255 33.4322 20.7618 32.7938 21.4085L28.5853 25.9987C28.8505 24.6567 29.3081 23.9105 29.8423 21.1134C30.3536 18.4351 30.2044 14.9168 29.9757 12.1542C29.9335 11.6477 29.9752 11.0327 29.91 10.5867C29.7119 9.23169 29.5503 10.0615 29.5023 10.0938C28.9033 10.5013 23.572 18.7737 22.7812 21.8104C21.845 25.4028 21.7303 29.3949 23.1835 32.6312C24.018 32.3683 23.4742 32.3632 24.3087 32.1004C22.9835 34.4327 21.0651 37.4412 19.9596 39.9737C19.9227 40.059 19.7726 40.4118 19.7294 40.4982C19.4585 41.0353 19.6167 40.7679 19.3568 41.1201C19.3568 37.0206 20.0963 36.5299 19.0009 31.4588C18.6537 29.8522 18.3031 28.9342 17.9252 27.4209C17.5583 25.9512 17.1425 24.6691 16.8811 23.3458C16.26 23.8822 16.4969 23.7155 16.2231 24.6923C16.0566 25.2858 15.9276 25.7901 15.7842 26.2977C15.4557 27.4594 15.2547 28.2688 14.9363 29.543C12.9666 37.4276 11.6774 41.2082 15.3008 48.3116C15.4226 48.5502 15.4562 48.6751 15.6629 48.8639L16.2058 49.0793C15.6034 50.4207 13.8533 56.0832 13.7301 57.8339C13.1627 56.7802 12.8423 52.2251 9.99685 47.6423C9.59015 46.9872 9.38967 46.5197 9.0458 45.8453C8.42855 44.6361 7.89043 43.1675 6.97727 42.4468C6.58064 44.4552 6.39167 55.9328 6.55713 57.7983C6.90629 61.7366 8.92685 67.355 11.9292 67.6495C11.8999 69.2063 11.4822 70.9813 11.4731 72.6828C11.462 74.7659 11.2539 75.8236 11.2539 77.996L11.0016 77.4974C10.8784 77.2503 10.8808 77.2577 10.7532 76.9948C7.78636 70.8858 7.35232 70.0107 2.857 65.6088C2.28387 65.0475 1.91745 64.5438 1.12563 64.4658C2.47619 71.3007 2.95244 79.9976 7.14177 84.9648C8.0017 85.984 10.5709 88.4741 11.9292 88.6075C11.9292 90.4136 13.0481 96.9975 13.5047 98.1852L13.7574 98.8075L13.2721 98.4231C11.6913 94.7618 3.57544 89.5725 0 86.7505C0.100717 88.1751 3.58791 95.7149 4.3524 97.5379C4.90106 98.846 5.3164 99.7516 5.94516 100.966C7.08518 103.168 8.65252 104.962 10.3542 106.381C11.8615 107.64 14.3253 109.3 16.8811 109.3C17.0168 111.221 20.4647 117.514 20.7073 118.586L17.3343 116.195C14.3516 114.367 12.6083 113.604 9.31677 112.645C7.91729 112.236 6.12885 111.273 4.9519 111.157C5.0248 112.192 4.85886 111.68 6.14659 113.463C7.51346 115.357 9.03141 117.971 10.4093 119.581C14.3267 124.157 16.5396 126.758 22.2459 127.915C26.0132 128.678 25.6804 126.765 27.3024 128.852C27.9134 129.638 28.0899 130.084 28.7508 130.859L31.907 134.568C32.6629 135.351 32.9449 135.318 33.5372 136.36C32.1411 135.977 31.3037 134.92 29.5392 134.44C25.7768 133.415 17.9578 132.646 13.955 132.646C14.9559 134.408 22.6881 140.322 25.3024 141.556C29.6179 143.591 34.2264 144.655 38.6244 142.342C39.7653 141.742 39.574 141.498 40.6032 142.335C42.1936 143.628 47.181 147.039 49.0677 147.484C49.4763 147.484 49.4006 147.346 49.4006 147.768C49.5914 148.03 49.5296 147.861 49.2927 148.078C48.2581 148.284 48.9761 148.242 48.7114 147.768C47.8385 147.738 47.3814 147.49 46.1469 147.496C45.1666 147.501 44.1873 147.492 43.2079 147.493C39.0526 147.5 31.7972 150.039 27.91 150.42C28.3465 151.123 28.3987 150.963 29.2529 151.225C34.7415 152.914 35.07 153.732 41.5068 154.822C44.899 155.397 49.5411 154.527 52.2964 152.635C52.9981 152.153 54.2916 150.865 54.6944 150.155C56.7692 150.725 60.7456 152.224 62.7973 152.277C62.4611 152.529 62.7796 152.327 62.3091 152.498C60.654 153.098 60.1701 153.151 58.3701 154.222C56.2373 155.49 46.7728 160.451 45.9162 161.828C47.674 162.311 51.566 161.631 53.7966 161.566C56.2167 161.494 59.0128 160.65 60.9705 159.94C66.2322 158.034 65.9747 157.804 69.047 154.338C69.6691 153.637 69.9137 153.34 70 152.92V150.42C68.3761 150.42 68.5415 149.84 68.049 148.475C66.8418 145.128 65.7426 143.701 62.8971 141.814C60.7499 140.389 57.6483 139.442 55.293 138.042C54.4661 137.551 53.529 136.861 52.6691 136.625C53.3539 140.092 56.9936 145.964 58.7125 147.542C59.3442 148.122 59.406 148.009 59.8713 148.829C58.6775 148.501 57.5246 148.143 56.4474 147.824C55.3146 147.487 54.1745 146.81 53.1189 146.707C53.1189 140.264 47.591 135.018 44.0597 130.855C43.3681 130.041 42.8262 129.421 42.1418 128.605C41.4511 127.782 41.0823 126.905 40.2895 126.279C40.2895 133.782 44.5057 141.665 44.5657 141.932C41.0022 139.708 41.3624 139.601 38.2637 137.156C39.6512 133.748 37.4397 126.737 36.0892 123.537L33.355 118.004C32.861 117.041 32.5603 116.284 32.1114 115.225C31.7344 114.335 31.4183 112.828 30.6112 112.484C30.6112 114.403 30.3939 115.378 30.3766 116.983L30.6145 126.275C30.6917 128.18 31.2318 128.843 31.5114 130.258C30.3431 129.25 27.5719 125.039 26.3345 123.361C26.5201 122.541 26.8434 122.292 27.24 120.449C29.3239 110.774 24.984 102.208 24.984 95.24H24.5336C24.3566 96.1366 24.1053 96.4305 23.8276 97.3259C23.6027 98.05 23.3653 98.9155 23.1807 99.747C21.7927 106.001 21.0373 109.632 22.2828 115.933C21.1855 114.985 18.2849 106.413 17.5564 104.791C19.811 104.081 21.6555 96.4441 21.8253 93.374C21.9562 91.0021 23.0233 79.5267 22.5083 78.2611C20.7606 78.8111 16.6969 88.8421 16.2499 90.7822C15.8341 92.5888 15.5305 94.3423 15.5305 96.5662H15.3056C15.3056 95.2038 13.7003 87.7002 13.9632 85.9823L18.4134 78.741C20.3117 75.2413 21.5984 69.745 22.7044 65.4935C23.0804 64.0486 23.7442 62.1052 23.8583 60.4868C22.4809 61.5738 21.8219 62.489 20.6512 63.8689C16.93 68.2555 15.4346 69.658 13.9617 75.8818C13.8672 76.282 13.944 76.0774 13.8092 76.4974C13.7838 76.5754 13.6951 76.8004 13.6696 76.8637C13.6509 76.91 13.6044 76.9965 13.5886 77.0338C13.5728 77.07 13.5358 77.1469 13.5047 77.2C13.5267 76.0406 13.7402 75.7563 13.7349 74.2877L14.5329 65.6778C14.8749 64.5399 14.3262 65.5365 15.9809 64.2007C16.4878 63.7914 16.9986 63.2991 17.5257 62.8384C21.6838 59.2053 25.0617 51.8611 28.2966 46.882C28.78 46.1381 29.1915 45.8125 29.2606 44.8346C27.805 45.2342 26.9518 45.9996 25.7365 46.7825C23.9264 47.9476 20.8647 50.0657 19.5246 51.6643L16.8811 54.9153C16.9808 53.5055 18.4594 49.3998 19.1122 47.7294C19.6652 46.3133 19.4316 46.9137 21.291 46.0527C21.9241 45.7599 22.4238 45.4162 22.96 45.1019L27.3964 41.8414C30.9478 38.7029 32.5746 36.591 35.4398 34.0777C36.1405 33.4633 36.3803 33.5384 36.4628 32.3655C32.9459 32.3655 29.0673 34.3536 26.1825 36.1659C24.9873 36.9166 24.1164 37.9793 23.4085 38.2021L27.0367 32.3977C28.768 29.7301 28.0242 32.1054 33.99 30.2468C36.6019 29.4328 41.878 26.4396 44.757 24.8975C45.3105 24.6013 45.7268 24.4475 45.9162 23.6109C44.1643 22.6199 38.7822 22.9947 36.398 23.5346C35.2187 23.8014 34.5333 24.1332 33.5372 24.4068C34.1429 23.3401 34.5923 23.1603 35.388 22.3435C39.5203 18.0999 36.223 21.0128 43.6727 20.9682C46.1709 20.9529 51.0092 20.0185 53.8273 19.6708C55.5606 19.4572 55.7865 19.8839 57.1706 19.101C56.5702 18.1355 55.4397 17.8953 54.3405 17.3956C50.9717 15.8653 48.2903 15.5148 44.5585 15.6437C43.4616 15.6816 43.5154 15.8919 42.5403 15.9173C42.6828 15.7715 42.841 15.6087 43.0271 15.4301C43.2401 15.2266 43.2856 15.1875 43.5345 14.9671C44.534 14.0807 46.5009 11.9535 47.5162 11.8218L50.0269 11.477C53.5976 10.4476 60.0444 2.75747 60.0967 0C59.1586 0.0248726 58.4737 0.474841 57.2493 0.88863C52.5928 2.46126 48.5234 3.27188 46.9287 8.62175C46.6285 9.62965 46.9167 9.48042 46.1915 10.1401L41.4147 13.5301Z" fill="url(#paint0_linear_1_440)"/>
<defs>
<linearGradient id="paint0_linear_1_440" x1="35" y1="0" x2="35" y2="162" gradientUnits="userSpaceOnUse">
<stop stop-color="#5E560F"/>
<stop offset="1" stop-color="#D9D9D9" stop-opacity="0"/>
</linearGradient>
</defs>
</svg>
