<svg width="70" height="162" viewBox="0 0 70 162" fill="none" xmlns="http://www.w3.org/2000/svg">
<path fill-rule="evenodd" clip-rule="evenodd" d="M28.5853 13.5301C27.0611 10.135 25.2751 5.98299 24.984 1.85697C26.3412 2.22949 28.0918 3.95079 29.2136 4.83037C31.921 6.95359 34.5588 9.89138 35.7607 13.5618C36.7832 16.6856 36.3664 17.2356 35.788 20.1621C36.6239 20.4255 36.5678 20.7618 37.2062 21.4085L41.4147 25.9987C41.1495 24.6567 40.6919 23.9105 40.1577 21.1134C39.6464 18.4351 39.7956 14.9168 40.0243 12.1542C40.0665 11.6477 40.0248 11.0327 40.09 10.5867C40.2881 9.23169 40.4497 10.0615 40.4977 10.0938C41.0967 10.5013 46.428 18.7737 47.2189 21.8104C48.155 25.4028 48.2697 29.3949 46.8165 32.6312C45.982 32.3683 46.5258 32.3632 45.6913 32.1004C47.0165 34.4327 48.9349 37.4412 50.0404 39.9737C50.0773 40.059 50.2274 40.4118 50.2706 40.4982C50.5415 41.0353 50.3833 40.7679 50.6432 41.1201C50.6432 37.0206 49.9037 36.5299 50.9991 31.4588C51.3463 29.8522 51.6969 28.9342 52.0748 27.4209C52.4417 25.9512 52.8575 24.6691 53.1189 23.3458C53.74 23.8822 53.5031 23.7155 53.7769 24.6923C53.9434 25.2858 54.0724 25.7901 54.2158 26.2977C54.5443 27.4594 54.7453 28.2688 55.0637 29.543C57.0335 37.4276 58.3226 41.2082 54.6992 48.3116C54.5774 48.5502 54.5438 48.6751 54.3371 48.8639L53.7942 49.0793C54.3966 50.4207 56.1467 56.0832 56.2699 57.8339C56.8373 56.7802 57.1577 52.2251 60.0032 47.6423C60.4099 46.9872 60.6103 46.5197 60.9542 45.8453C61.5715 44.6361 62.1096 43.1675 63.0227 42.4468C63.4194 44.4553 63.6083 55.9328 63.4429 57.7983C63.0937 61.7366 61.0731 67.355 58.0708 67.6495C58.1001 69.2063 58.5178 70.9813 58.5269 72.6828C58.538 74.7659 58.7461 75.8236 58.7461 77.996L58.9984 77.4974C59.1216 77.2503 59.1192 77.2577 59.2468 76.9948C62.2136 70.8858 62.6477 70.0107 67.143 65.6088C67.7161 65.0475 68.0825 64.5438 68.8744 64.4658C67.5238 71.3007 67.0476 79.9976 62.8582 84.9648C61.9983 85.984 59.4291 88.4741 58.0708 88.6075C58.0708 90.4136 56.9519 96.9975 56.4953 98.1852L56.2426 98.8075L56.7279 98.4231C58.3087 94.7618 66.4246 89.5725 70 86.7505C69.8993 88.1751 66.4121 95.7149 65.6476 97.5379C65.0989 98.846 64.6836 99.7516 64.0548 100.966C62.9148 103.168 61.3475 104.962 59.6458 106.381C58.1385 107.64 55.6747 109.3 53.1189 109.3C52.9832 111.221 49.5353 117.514 49.2927 118.586L52.6657 116.195C55.6484 114.367 57.3917 113.604 60.6832 112.645C62.0827 112.236 63.8712 111.273 65.0481 111.157C64.9752 112.192 65.1411 111.68 63.8534 113.463C62.4865 115.357 60.9686 117.971 59.5907 119.581C55.6733 124.157 53.4604 126.758 47.7541 127.915C43.9868 128.678 44.3197 126.765 42.6976 128.852C42.0866 129.638 41.9101 130.084 41.2492 130.859L38.093 134.568C37.3371 135.351 37.0551 135.318 36.4628 136.36C37.8589 135.977 38.6963 134.92 40.4608 134.44C44.2232 133.416 52.0422 132.646 56.045 132.646C55.0441 134.408 47.3119 140.322 44.6976 141.556C40.3821 143.591 35.7736 144.655 31.3756 142.342C30.2347 141.742 30.426 141.498 29.3968 142.335C27.8064 143.628 22.819 147.039 20.9323 147.484C20.5237 147.484 20.5994 147.346 20.5994 147.768C20.4086 148.03 20.4704 147.861 20.7073 148.078C21.7419 148.284 21.0239 148.242 21.2886 147.768C22.1615 147.738 22.6186 147.49 23.8531 147.496C24.8334 147.501 25.8127 147.492 26.7921 147.493C30.9474 147.5 38.2028 150.039 42.09 150.42C41.6535 151.123 41.6013 150.963 40.7471 151.225C35.2585 152.914 34.93 153.732 28.4932 154.822C25.101 155.397 20.4589 154.527 17.7036 152.635C17.0019 152.153 15.7084 150.865 15.3056 150.155C13.2308 150.725 9.25443 152.224 7.20268 152.277C7.53888 152.529 7.22042 152.327 7.69092 152.498C9.34603 153.098 9.82995 153.151 11.6299 154.222C13.7627 155.491 23.2272 160.451 24.0838 161.828C22.326 162.311 18.434 161.631 16.2034 161.566C13.7833 161.494 10.9872 160.65 9.02949 159.94C3.76776 158.034 4.02531 157.804 0.952972 154.338C0.330925 153.637 0.0863266 153.34 0 152.92V150.42C1.62394 150.42 1.45847 149.84 1.95103 148.475C3.15819 145.128 4.25744 143.701 7.10292 141.814C9.25011 140.389 12.3517 139.442 14.707 138.042C15.5339 137.551 16.471 136.861 17.3309 136.625C16.6461 140.092 13.0064 145.964 11.2875 147.542C10.6558 148.122 10.594 148.01 10.1287 148.829C11.3225 148.501 12.4754 148.143 13.5526 147.824C14.6854 147.487 15.8255 146.81 16.8811 146.707C16.8811 140.264 22.409 135.018 25.9403 130.855C26.6319 130.041 27.1738 129.421 27.8582 128.605C28.5489 127.782 28.9177 126.905 29.7105 126.279C29.7105 133.782 25.4943 141.665 25.4343 141.932C28.9978 139.708 28.6376 139.601 31.7363 137.156C30.3488 133.748 32.5603 126.737 33.9108 123.537L36.645 118.004C37.139 117.041 37.4397 116.284 37.8887 115.225C38.2656 114.335 38.5817 112.828 39.3888 112.484C39.3888 114.403 39.6061 115.378 39.6234 116.983L39.3855 126.275C39.3083 128.18 38.7682 128.843 38.4886 130.258C39.6569 129.25 42.4281 125.039 43.6655 123.361C43.4799 122.541 43.1566 122.292 42.76 120.449C40.6761 110.774 45.016 102.208 45.016 95.24H45.4664C45.6434 96.1366 45.8947 96.4305 46.1724 97.3259C46.3973 98.0501 46.6347 98.9155 46.8193 99.747C48.2073 106.001 48.9627 109.632 47.7172 115.933C48.8145 114.985 51.7151 106.413 52.4436 104.791C50.189 104.081 48.3445 96.4441 48.1747 93.374C48.0438 91.0021 46.9767 79.5268 47.4917 78.2611C49.2394 78.8111 53.3031 88.8421 53.7501 90.7822C54.1659 92.5888 54.4695 94.3423 54.4695 96.5662H54.6944C54.6944 95.2038 56.2997 87.7002 56.0368 85.9823L51.5866 78.741C49.6883 75.2413 48.4016 69.745 47.2956 65.4935C46.9196 64.0486 46.2558 62.1052 46.1417 60.4868C47.5191 61.5738 48.1781 62.489 49.3488 63.8689C53.07 68.2555 54.5654 69.658 56.0383 75.8818C56.1328 76.282 56.056 76.0774 56.1908 76.4974C56.2162 76.5754 56.3049 76.8004 56.3304 76.8637C56.3491 76.91 56.3956 76.9965 56.4114 77.0338C56.4272 77.07 56.4642 77.1469 56.4953 77.2C56.4733 76.0406 56.2598 75.7563 56.2651 74.2877L55.4671 65.6778C55.1251 64.5399 55.6738 65.5365 54.0191 64.2007C53.5122 63.7914 53.0014 63.2991 52.4743 62.8384C48.3162 59.2053 44.9383 51.8611 41.7034 46.882C41.22 46.1381 40.8085 45.8125 40.7394 44.8346C42.195 45.2342 43.0482 45.9996 44.2635 46.7825C46.0736 47.9476 49.1353 50.0657 50.4754 51.6643L53.1189 54.9153C53.0192 53.5055 51.5406 49.3998 50.8878 47.7294C50.3348 46.3134 50.5684 46.9137 48.709 46.0528C48.0759 45.7599 47.5762 45.4162 47.04 45.1019L42.6036 41.8414C39.0522 38.7029 37.4254 36.591 34.5602 34.0777C33.8595 33.4633 33.6197 33.5384 33.5372 32.3655C37.0541 32.3655 40.9327 34.3536 43.8175 36.1659C45.0127 36.9166 45.8836 37.9793 46.5915 38.2021L42.9633 32.3977C41.232 29.7301 41.9758 32.1054 36.01 30.2468C33.3981 29.4328 28.122 26.4396 25.243 24.8975C24.6895 24.6013 24.2732 24.4475 24.0838 23.6109C25.8357 22.6199 31.2178 22.9947 33.602 23.5346C34.7813 23.8014 35.4667 24.1332 36.4628 24.4068C35.8571 23.3401 35.4077 23.1603 34.612 22.3435C30.4797 18.0999 33.777 21.0128 26.3273 20.9682C23.8291 20.9529 18.9908 20.0185 16.1727 19.6708C14.4394 19.4572 14.2135 19.8839 12.8294 19.101C13.4299 18.1355 14.5603 17.8953 15.6595 17.3956C19.0283 15.8653 21.7097 15.5148 25.4415 15.6437C26.5384 15.6816 26.4846 15.8919 27.4597 15.9173C27.3172 15.7715 27.159 15.6087 26.9729 15.4301C26.7599 15.2266 26.7144 15.1875 26.4655 14.9671C25.466 14.0807 23.4991 11.9535 22.4838 11.8218L19.9731 11.477C16.4024 10.4476 9.95561 2.75747 9.90333 0C10.8414 0.0248726 11.5263 0.474841 12.7507 0.88863C17.4072 2.46126 21.4766 3.27188 23.0713 8.62175C23.3715 9.62965 23.0833 9.48042 23.8085 10.1401L28.5853 13.5301Z" fill="url(#paint0_linear_1_429)"/>
<defs>
<linearGradient id="paint0_linear_1_429" x1="35" y1="0" x2="35" y2="162" gradientUnits="userSpaceOnUse">
<stop stop-color="#5E560F"/>
<stop offset="1" stop-color="#D9D9D9" stop-opacity="0"/>
</linearGradient>
</defs>
</svg>
