<svg width="35" height="35" viewBox="0 0 35 35" fill="none" xmlns="http://www.w3.org/2000/svg">
<g clip-path="url(#clip0_1_335)">
<path d="M22.6625 28.2625H4.13437L1.8375 30.5594V29.5334V12.3375L10.5 12.25V11.6667C10.5 12.1726 10.4183 10.7858 10.5 10.5H1.8375C1.3475 10.5 0.91875 10.6889 0.55125 11.0666C0.18375 11.4443 0 11.8679 0 12.3375V35L4.9 30.1H22.6625C23.1321 30.1 23.5557 29.9111 23.9334 29.5334C24.3111 29.1557 24.5 28.7321 24.5 28.2625V20.809L23.4792 20.8089H22.6625V28.2625Z" fill="#EAECED"/>
<path d="M22.6625 28.2625H4.13437L1.8375 30.5594V29.5334V12.3375L10.5 12.25V11.6667C10.5 12.1726 10.4183 10.7858 10.5 10.5H1.8375C1.3475 10.5 0.91875 10.6889 0.55125 11.0666C0.18375 11.4443 0 11.8679 0 12.3375V35L4.9 30.1H22.6625C23.1321 30.1 23.5557 29.9111 23.9334 29.5334C24.3111 29.1557 24.5 28.7321 24.5 28.2625V20.809L23.4792 20.8089H22.6625V28.2625Z" fill="black" fill-opacity="0.2"/>
<path d="M22.6625 28.2625H4.13437L1.8375 30.5594V29.5334V12.3375L10.5 12.25V11.6667C10.5 12.1726 10.4183 10.7858 10.5 10.5H1.8375C1.3475 10.5 0.91875 10.6889 0.55125 11.0666C0.18375 11.4443 0 11.8679 0 12.3375V35L4.9 30.1H22.6625C23.1321 30.1 23.5557 29.9111 23.9334 29.5334C24.3111 29.1557 24.5 28.7321 24.5 28.2625V20.809L23.4792 20.8089H22.6625V28.2625Z" fill="black" fill-opacity="0.2"/>
<path d="M22.6625 28.2625H4.13437L1.8375 30.5594V29.5334V12.3375L10.5 12.25V11.6667C10.5 12.1726 10.4183 10.7858 10.5 10.5H1.8375C1.3475 10.5 0.91875 10.6889 0.55125 11.0666C0.18375 11.4443 0 11.8679 0 12.3375V35L4.9 30.1H22.6625C23.1321 30.1 23.5557 29.9111 23.9334 29.5334C24.3111 29.1557 24.5 28.7321 24.5 28.2625V20.809L23.4792 20.8089H22.6625V28.2625Z" fill="black" fill-opacity="0.2"/>
<path d="M22.6625 28.2625H4.13437L1.8375 30.5594V29.5334V12.3375L10.5 12.25V11.6667C10.5 12.1726 10.4183 10.7858 10.5 10.5H1.8375C1.3475 10.5 0.91875 10.6889 0.55125 11.0666C0.18375 11.4443 0 11.8679 0 12.3375V35L4.9 30.1H22.6625C23.1321 30.1 23.5557 29.9111 23.9334 29.5334C24.3111 29.1557 24.5 28.7321 24.5 28.2625V20.809L23.4792 20.8089H22.6625V28.2625Z" fill="black" fill-opacity="0.2"/>
<path d="M22.6625 28.2625H4.13437L1.8375 30.5594V29.5334V12.3375L10.5 12.25V11.6667C10.5 12.1726 10.4183 10.7858 10.5 10.5H1.8375C1.3475 10.5 0.91875 10.6889 0.55125 11.0666C0.18375 11.4443 0 11.8679 0 12.3375V35L4.9 30.1H22.6625C23.1321 30.1 23.5557 29.9111 23.9334 29.5334C24.3111 29.1557 24.5 28.7321 24.5 28.2625V20.809L23.4792 20.8089H22.6625V28.2625Z" fill="black" fill-opacity="0.2"/>
<path d="M14.6344 19.0931H33.1625V8.66511C33.5096 8.56552 33.8311 8.43106 34.1272 8.26174C34.4232 8.09242 34.7142 7.8982 35 7.67908V19.0931C35 19.5513 34.8111 19.9646 34.4334 20.3331C34.0557 20.7017 33.6321 20.8859 33.1625 20.8859H15.4L10.5 25.6667V3.55568C10.5 3.09753 10.6838 2.68419 11.0513 2.31568C11.4188 1.94716 11.8475 1.7629 12.3375 1.7629H25.7206C25.639 2.04178 25.5777 2.3356 25.5369 2.64435C25.496 2.95311 25.4858 3.25689 25.5063 3.55568H12.3375V21.3341L14.6344 19.0931ZM15.4 16.135H24.9856V14.3423H15.4V16.135ZM15.4 12.2507H30.1V10.4579H15.4V12.2507ZM15.4 8.36632H28.7219C28.2931 8.1472 27.9001 7.88824 27.5428 7.58944C27.1855 7.29065 26.864 6.95201 26.5781 6.57353H15.4V8.36632ZM31.325 6.57353C30.3858 6.57353 29.5896 6.25482 28.9363 5.61738C28.2829 4.97995 27.9563 4.20308 27.9563 3.28677C27.9563 2.37046 28.2829 1.59358 28.9363 0.956151C29.5896 0.318717 30.3858 0 31.325 0C32.2642 0 33.0604 0.318717 33.7138 0.956151C34.3671 1.59358 34.6938 2.37046 34.6938 3.28677C34.6938 4.20308 34.3671 4.97995 33.7138 5.61738C33.0604 6.25482 32.2642 6.57353 31.325 6.57353Z" fill="#EAECED"/>
<path d="M14.6344 19.0931H33.1625V8.66511C33.5096 8.56552 33.8311 8.43106 34.1272 8.26174C34.4232 8.09242 34.7142 7.8982 35 7.67908V19.0931C35 19.5513 34.8111 19.9646 34.4334 20.3331C34.0557 20.7017 33.6321 20.8859 33.1625 20.8859H15.4L10.5 25.6667V3.55568C10.5 3.09753 10.6838 2.68419 11.0513 2.31568C11.4188 1.94716 11.8475 1.7629 12.3375 1.7629H25.7206C25.639 2.04178 25.5777 2.3356 25.5369 2.64435C25.496 2.95311 25.4858 3.25689 25.5063 3.55568H12.3375V21.3341L14.6344 19.0931ZM15.4 16.135H24.9856V14.3423H15.4V16.135ZM15.4 12.2507H30.1V10.4579H15.4V12.2507ZM15.4 8.36632H28.7219C28.2931 8.1472 27.9001 7.88824 27.5428 7.58944C27.1855 7.29065 26.864 6.95201 26.5781 6.57353H15.4V8.36632ZM31.325 6.57353C30.3858 6.57353 29.5896 6.25482 28.9363 5.61738C28.2829 4.97995 27.9563 4.20308 27.9563 3.28677C27.9563 2.37046 28.2829 1.59358 28.9363 0.956151C29.5896 0.318717 30.3858 0 31.325 0C32.2642 0 33.0604 0.318717 33.7138 0.956151C34.3671 1.59358 34.6938 2.37046 34.6938 3.28677C34.6938 4.20308 34.3671 4.97995 33.7138 5.61738C33.0604 6.25482 32.2642 6.57353 31.325 6.57353Z" fill="black" fill-opacity="0.2"/>
<path d="M14.6344 19.0931H33.1625V8.66511C33.5096 8.56552 33.8311 8.43106 34.1272 8.26174C34.4232 8.09242 34.7142 7.8982 35 7.67908V19.0931C35 19.5513 34.8111 19.9646 34.4334 20.3331C34.0557 20.7017 33.6321 20.8859 33.1625 20.8859H15.4L10.5 25.6667V3.55568C10.5 3.09753 10.6838 2.68419 11.0513 2.31568C11.4188 1.94716 11.8475 1.7629 12.3375 1.7629H25.7206C25.639 2.04178 25.5777 2.3356 25.5369 2.64435C25.496 2.95311 25.4858 3.25689 25.5063 3.55568H12.3375V21.3341L14.6344 19.0931ZM15.4 16.135H24.9856V14.3423H15.4V16.135ZM15.4 12.2507H30.1V10.4579H15.4V12.2507ZM15.4 8.36632H28.7219C28.2931 8.1472 27.9001 7.88824 27.5428 7.58944C27.1855 7.29065 26.864 6.95201 26.5781 6.57353H15.4V8.36632ZM31.325 6.57353C30.3858 6.57353 29.5896 6.25482 28.9363 5.61738C28.2829 4.97995 27.9563 4.20308 27.9563 3.28677C27.9563 2.37046 28.2829 1.59358 28.9363 0.956151C29.5896 0.318717 30.3858 0 31.325 0C32.2642 0 33.0604 0.318717 33.7138 0.956151C34.3671 1.59358 34.6938 2.37046 34.6938 3.28677C34.6938 4.20308 34.3671 4.97995 33.7138 5.61738C33.0604 6.25482 32.2642 6.57353 31.325 6.57353Z" fill="black" fill-opacity="0.2"/>
<path d="M14.6344 19.0931H33.1625V8.66511C33.5096 8.56552 33.8311 8.43106 34.1272 8.26174C34.4232 8.09242 34.7142 7.8982 35 7.67908V19.0931C35 19.5513 34.8111 19.9646 34.4334 20.3331C34.0557 20.7017 33.6321 20.8859 33.1625 20.8859H15.4L10.5 25.6667V3.55568C10.5 3.09753 10.6838 2.68419 11.0513 2.31568C11.4188 1.94716 11.8475 1.7629 12.3375 1.7629H25.7206C25.639 2.04178 25.5777 2.3356 25.5369 2.64435C25.496 2.95311 25.4858 3.25689 25.5063 3.55568H12.3375V21.3341L14.6344 19.0931ZM15.4 16.135H24.9856V14.3423H15.4V16.135ZM15.4 12.2507H30.1V10.4579H15.4V12.2507ZM15.4 8.36632H28.7219C28.2931 8.1472 27.9001 7.88824 27.5428 7.58944C27.1855 7.29065 26.864 6.95201 26.5781 6.57353H15.4V8.36632ZM31.325 6.57353C30.3858 6.57353 29.5896 6.25482 28.9363 5.61738C28.2829 4.97995 27.9563 4.20308 27.9563 3.28677C27.9563 2.37046 28.2829 1.59358 28.9363 0.956151C29.5896 0.318717 30.3858 0 31.325 0C32.2642 0 33.0604 0.318717 33.7138 0.956151C34.3671 1.59358 34.6938 2.37046 34.6938 3.28677C34.6938 4.20308 34.3671 4.97995 33.7138 5.61738C33.0604 6.25482 32.2642 6.57353 31.325 6.57353Z" fill="black" fill-opacity="0.2"/>
<path d="M14.6344 19.0931H33.1625V8.66511C33.5096 8.56552 33.8311 8.43106 34.1272 8.26174C34.4232 8.09242 34.7142 7.8982 35 7.67908V19.0931C35 19.5513 34.8111 19.9646 34.4334 20.3331C34.0557 20.7017 33.6321 20.8859 33.1625 20.8859H15.4L10.5 25.6667V3.55568C10.5 3.09753 10.6838 2.68419 11.0513 2.31568C11.4188 1.94716 11.8475 1.7629 12.3375 1.7629H25.7206C25.639 2.04178 25.5777 2.3356 25.5369 2.64435C25.496 2.95311 25.4858 3.25689 25.5063 3.55568H12.3375V21.3341L14.6344 19.0931ZM15.4 16.135H24.9856V14.3423H15.4V16.135ZM15.4 12.2507H30.1V10.4579H15.4V12.2507ZM15.4 8.36632H28.7219C28.2931 8.1472 27.9001 7.88824 27.5428 7.58944C27.1855 7.29065 26.864 6.95201 26.5781 6.57353H15.4V8.36632ZM31.325 6.57353C30.3858 6.57353 29.5896 6.25482 28.9363 5.61738C28.2829 4.97995 27.9563 4.20308 27.9563 3.28677C27.9563 2.37046 28.2829 1.59358 28.9363 0.956151C29.5896 0.318717 30.3858 0 31.325 0C32.2642 0 33.0604 0.318717 33.7138 0.956151C34.3671 1.59358 34.6938 2.37046 34.6938 3.28677C34.6938 4.20308 34.3671 4.97995 33.7138 5.61738C33.0604 6.25482 32.2642 6.57353 31.325 6.57353Z" fill="black" fill-opacity="0.2"/>
<path d="M14.6344 19.0931H33.1625V8.66511C33.5096 8.56552 33.8311 8.43106 34.1272 8.26174C34.4232 8.09242 34.7142 7.8982 35 7.67908V19.0931C35 19.5513 34.8111 19.9646 34.4334 20.3331C34.0557 20.7017 33.6321 20.8859 33.1625 20.8859H15.4L10.5 25.6667V3.55568C10.5 3.09753 10.6838 2.68419 11.0513 2.31568C11.4188 1.94716 11.8475 1.7629 12.3375 1.7629H25.7206C25.639 2.04178 25.5777 2.3356 25.5369 2.64435C25.496 2.95311 25.4858 3.25689 25.5063 3.55568H12.3375V21.3341L14.6344 19.0931ZM15.4 16.135H24.9856V14.3423H15.4V16.135ZM15.4 12.2507H30.1V10.4579H15.4V12.2507ZM15.4 8.36632H28.7219C28.2931 8.1472 27.9001 7.88824 27.5428 7.58944C27.1855 7.29065 26.864 6.95201 26.5781 6.57353H15.4V8.36632ZM31.325 6.57353C30.3858 6.57353 29.5896 6.25482 28.9363 5.61738C28.2829 4.97995 27.9563 4.20308 27.9563 3.28677C27.9563 2.37046 28.2829 1.59358 28.9363 0.956151C29.5896 0.318717 30.3858 0 31.325 0C32.2642 0 33.0604 0.318717 33.7138 0.956151C34.3671 1.59358 34.6938 2.37046 34.6938 3.28677C34.6938 4.20308 34.3671 4.97995 33.7138 5.61738C33.0604 6.25482 32.2642 6.57353 31.325 6.57353Z" fill="black" fill-opacity="0.2"/>
</g>
<defs>
<clipPath id="clip0_1_335">
<rect width="35" height="35" fill="white"/>
</clipPath>
</defs>
</svg>
