<svg width="30" height="30" viewBox="0 0 30 30" fill="none" xmlns="http://www.w3.org/2000/svg">
<path d="M14.6875 20.4375H15.375V13.75H14.6875V20.4375ZM15 12.25C15.1667 12.25 15.3021 12.1979 15.4062 12.0938C15.5104 11.9896 15.5625 11.8542 15.5625 11.6875C15.5625 11.5208 15.5104 11.3854 15.4062 11.2812C15.3021 11.1771 15.1667 11.125 15 11.125C14.8333 11.125 14.6979 11.1771 14.5938 11.2812C14.4896 11.3854 14.4375 11.5208 14.4375 11.6875C14.4375 11.8542 14.4896 11.9896 14.5938 12.0938C14.6979 12.1979 14.8333 12.25 15 12.25ZM15 25.875C13.4792 25.875 12.0573 25.5938 10.7344 25.0312C9.41146 24.4688 8.26042 23.6979 7.28125 22.7187C6.30208 21.7396 5.53125 20.5885 4.96875 19.2656C4.40625 17.9427 4.125 16.5208 4.125 15C4.125 13.4792 4.40625 12.0573 4.96875 10.7344C5.53125 9.41146 6.30208 8.26042 7.28125 7.28125C8.26042 6.30208 9.41146 5.53125 10.7344 4.96875C12.0573 4.40625 13.4792 4.125 15 4.125C16.5208 4.125 17.9427 4.40625 19.2656 4.96875C20.5885 5.53125 21.7396 6.30208 22.7187 7.28125C23.6979 8.26042 24.4688 9.41146 25.0312 10.7344C25.5938 12.0573 25.875 13.4792 25.875 15C25.875 16.5208 25.5938 17.9427 25.0312 19.2656C24.4688 20.5885 23.6979 21.7396 22.7187 22.7187C21.7396 23.6979 20.5885 24.4688 19.2656 25.0312C17.9427 25.5938 16.5208 25.875 15 25.875ZM15 25.1875C17.8125 25.1875 20.2135 24.1927 22.2031 22.2031C24.1927 20.2135 25.1875 17.8125 25.1875 15C25.1875 12.1875 24.1927 9.78646 22.2031 7.79688C20.2135 5.80729 17.8125 4.8125 15 4.8125C12.1875 4.8125 9.78646 5.80729 7.79688 7.79688C5.80729 9.78646 4.8125 12.1875 4.8125 15C4.8125 17.8125 5.80729 20.2135 7.79688 22.2031C9.78646 24.1927 12.1875 25.1875 15 25.1875Z" fill="#0094FF"/>
</svg>
