<svg width="30" height="30" viewBox="0 0 30 30" fill="none" xmlns="http://www.w3.org/2000/svg">
<path d="M8.75 16.125C8.4375 16.125 8.17187 16.0156 7.95312 15.7969C7.73438 15.5781 7.625 15.3125 7.625 15C7.625 14.6875 7.73438 14.4219 7.95312 14.2031C8.17187 13.9844 8.4375 13.875 8.75 13.875C9.0625 13.875 9.32812 13.9844 9.54687 14.2031C9.76562 14.4219 9.875 14.6875 9.875 15C9.875 15.3125 9.76562 15.5781 9.54687 15.7969C9.32812 16.0156 9.0625 16.125 8.75 16.125ZM8.75 20.875C7.125 20.875 5.73958 20.3021 4.59375 19.1562C3.44792 18.0104 2.875 16.625 2.875 15C2.875 13.375 3.44792 11.9896 4.59375 10.8437C5.73958 9.69792 7.125 9.125 8.75 9.125C10.0208 9.125 11.1615 9.47917 12.1719 10.1875C13.1823 10.8958 13.8854 11.8437 14.2812 13.0312H25.9688L28.0312 15.0937L24.6563 18.2812L22.5625 16.7187L20.2813 18.3437L18.2812 16.9687H14.2812C13.9062 18.0937 13.2187 19.026 12.2187 19.7656C11.2187 20.5052 10.0625 20.875 8.75 20.875ZM8.75 20.1875C10 20.1875 11.0781 19.7969 11.9844 19.0156C12.8906 18.2344 13.4688 17.3229 13.7188 16.2812H18.5312L20.2813 17.5L22.5938 15.875L24.6563 17.4375L27.0625 15.0625L25.7188 13.7187H13.7188C13.4896 12.6979 12.9219 11.7917 12.0156 11C11.1094 10.2083 10.0208 9.8125 8.75 9.8125C7.3125 9.8125 6.08854 10.3177 5.07813 11.3281C4.06771 12.3385 3.5625 13.5625 3.5625 15C3.5625 16.4375 4.06771 17.6615 5.07813 18.6719C6.08854 19.6823 7.3125 20.1875 8.75 20.1875Z" fill="#0094FF"/>
</svg>
