<svg width="30" height="30" viewBox="0 0 30 30" fill="none" xmlns="http://www.w3.org/2000/svg">
<path d="M12.75 17.7188L15 15.9688L17.1875 17.6562L16.3125 14.9375L18.6875 13.1562H15.875L15 10.4062L14.125 13.1562H11.3125L13.625 14.9375L12.75 17.7188ZM15 25.8125C12.6042 25.0417 10.6094 23.5469 9.01562 21.3281C7.42187 19.1094 6.625 16.6042 6.625 13.8125V7.375L15 4.25L23.375 7.375V13.8125C23.375 16.6042 22.5781 19.1094 20.9844 21.3281C19.3906 23.5469 17.3958 25.0417 15 25.8125ZM15 25.0625C17.2292 24.3542 19.0677 22.9479 20.5156 20.8438C21.9635 18.7396 22.6875 16.3958 22.6875 13.8125V7.84375L15 4.96875L7.3125 7.84375V13.8125C7.3125 16.3958 8.03646 18.7396 9.48438 20.8438C10.9323 22.9479 12.7708 24.3542 15 25.0625Z" fill="#0094FF"/>
</svg>
