<svg width="31" height="30" viewBox="0 0 31 30" fill="none" xmlns="http://www.w3.org/2000/svg">
<path d="M7.06653 10.4375L4.858 7.9375C4.65063 7.70833 4.60915 7.45312 4.73358 7.17187C4.858 6.89062 5.07574 6.75 5.3868 6.75H23.3039C23.7808 6.75 24.18 6.91146 24.5014 7.23437C24.8229 7.55729 24.9836 7.95833 24.9836 8.4375V21.8125C24.9836 22.2917 24.8229 22.6927 24.5014 23.0156C24.18 23.3385 23.7808 23.5 23.3039 23.5H8.74625C8.26929 23.5 7.8701 23.3385 7.54867 23.0156C7.22724 22.6927 7.06653 22.2917 7.06653 21.8125V10.4375ZM10.426 15.4687H21.6241C21.7278 15.4687 21.8108 15.4375 21.873 15.375C21.9352 15.3125 21.9663 15.2292 21.9663 15.125C21.9663 15.0208 21.9352 14.9375 21.873 14.875C21.8108 14.8125 21.7278 14.7812 21.6241 14.7812H10.426C10.3223 14.7812 10.2393 14.8125 10.1771 14.875C10.1149 14.9375 10.0838 15.0208 10.0838 15.125C10.0838 15.2292 10.1149 15.3125 10.1771 15.375C10.2393 15.4375 10.3223 15.4687 10.426 15.4687ZM10.426 19.2187H17.8914C17.9951 19.2187 18.078 19.1875 18.1403 19.125C18.2025 19.0625 18.2336 18.9792 18.2336 18.875C18.2336 18.7708 18.2025 18.6875 18.1403 18.625C18.078 18.5625 17.9951 18.5312 17.8914 18.5312H10.426C10.3223 18.5312 10.2393 18.5625 10.1771 18.625C10.1149 18.6875 10.0838 18.7708 10.0838 18.875C10.0838 18.9792 10.1149 19.0625 10.1771 19.125C10.2393 19.1875 10.3223 19.2187 10.426 19.2187ZM10.426 11.7187H21.6241C21.7278 11.7187 21.8108 11.6875 21.873 11.625C21.9352 11.5625 21.9663 11.4792 21.9663 11.375C21.9663 11.2708 21.9352 11.1875 21.873 11.125C21.8108 11.0625 21.7278 11.0312 21.6241 11.0312H10.426C10.3223 11.0312 10.2393 11.0625 10.1771 11.125C10.1149 11.1875 10.0838 11.2708 10.0838 11.375C10.0838 11.4792 10.1149 11.5625 10.1771 11.625C10.2393 11.6875 10.3223 11.7187 10.426 11.7187ZM7.75086 10.1875V21.8125C7.75086 22.0625 7.85455 22.2917 8.06192 22.5C8.26929 22.7083 8.4974 22.8125 8.74625 22.8125H23.3039C23.5527 22.8125 23.7808 22.7083 23.9882 22.5C24.1956 22.2917 24.2992 22.0625 24.2992 21.8125V8.4375C24.2992 8.1875 24.1956 7.95833 23.9882 7.75C23.7808 7.54167 23.5527 7.4375 23.3039 7.4375H5.32459L7.75086 10.1875Z" fill="#0094FF"/>
</svg>
