<svg width="35" height="35" viewBox="0 0 35 35" fill="none" xmlns="http://www.w3.org/2000/svg">
<path d="M10.85 29H3C2.44772 29 2 28.5523 2 28V15C2 14.4477 2.44772 14 3 14H10.85C10.9328 14 11 14.0672 11 14.15V28.85C11 28.9328 10.9328 29 10.85 29Z" stroke="white" stroke-linecap="round"/>
<path d="M11 16L14.8944 8.21115C14.9639 8.07229 15 7.91918 15 7.76393V3C15 2.44772 15.4477 2 16 2H19C20.1046 2 21 2.89543 21 4V14" stroke="white" stroke-linecap="round"/>
<path d="M17.3892 14H31.6664C32.3331 14 32.8131 14.6402 32.6263 15.2802L28.2479 30.2802C28.1233 30.7068 27.7323 31 27.2879 31H17.8027C17.5379 31 17.2839 30.8949 17.0964 30.7079L15.5522 29.1671C15.3647 28.9801 15.1107 28.875 14.8459 28.875H11" stroke="white" stroke-linecap="round"/>
</svg>
