<svg width="177" height="18" viewBox="0 0 177 18" fill="none" xmlns="http://www.w3.org/2000/svg">
<path d="M84.7867 6.13184C86.2096 6.13184 87.3617 7.29863 87.3617 8.73092C87.3617 10.1632 86.2096 11.323 84.7867 11.323C83.3639 11.323 82.2048 10.1632 82.2048 8.73092C82.2048 7.29863 83.3639 6.13184 84.7867 6.13184Z" fill="#0094FF"/>
<path d="M110.044 17.199V0.801025H111.307L121.676 14.7396V0.801025H123.05V17.199H121.801L111.446 3.28133V17.199H110.044Z" fill="#0094FF"/>
<path d="M91.1235 8.99645C91.1235 11.0995 91.7551 12.8112 93.0183 14.1387C94.2815 15.4592 95.9125 16.123 97.9184 16.123C99.9103 16.123 101.541 15.4592 102.812 14.1387C104.075 12.8112 104.706 11.0995 104.706 8.99645C104.706 6.89343 104.075 5.18166 102.812 3.86116C101.541 2.54765 99.9103 1.88391 97.9184 1.88391C95.9125 1.88391 94.2815 2.54765 93.0183 3.86815C91.7551 5.18865 91.1235 6.90041 91.1235 8.99645ZM97.9184 17.4784C96.329 17.4784 94.9062 17.1221 93.6638 16.4094C92.4145 15.6898 91.4428 14.6837 90.7487 13.3981C90.0547 12.1056 89.7076 10.6383 89.7076 8.99645C89.7076 7.77376 89.9089 6.63491 90.3184 5.57991C90.7279 4.52491 91.2901 3.6306 92.005 2.89C92.7268 2.1494 93.5944 1.57649 94.6147 1.15728C95.6349 0.738074 96.7315 0.521484 97.9184 0.521484C99.0983 0.521484 100.195 0.738074 101.215 1.15728C102.235 1.57649 103.096 2.15639 103.818 2.89699C104.533 3.64457 105.095 4.53888 105.498 5.5869C105.9 6.63491 106.101 7.77376 106.101 8.99645C106.101 10.6314 105.761 12.0916 105.067 13.3841C104.373 14.6767 103.401 15.6828 102.152 16.4024C100.903 17.1221 99.487 17.4784 97.9184 17.4784Z" fill="#0094FF"/>
<path d="M8.87732 17.4996C11.598 17.4996 14.2216 16.4725 16.04 14.1319L13.5969 11.5538C12.4587 13.0071 10.9664 13.8245 9.12718 13.8245C6.38564 13.8245 4.59496 11.8542 4.59496 9.00364C4.59496 6.16701 6.38564 4.17578 9.05777 4.17578C10.6888 4.17578 12.1533 4.95131 13.2499 6.33469L15.6861 3.75657C13.7843 1.5767 11.4592 0.500732 8.80097 0.500732C3.75515 0.500732 0.5 4.22468 0.5 9.00364C0.5 13.8944 3.80373 17.4996 8.87732 17.4996Z" fill="white"/>
<path d="M21.9673 10.4985H28.5262V7.3405H21.9673V4.01479H29.137V0.807861H18.0598V17.1988H29.4146V13.943H21.9673V10.4985Z" fill="white"/>
<path d="M47.4602 17.1988L41.2275 0.807861H36.9521L30.6431 17.1988H34.8352L35.7861 14.5299H42.3727L43.3444 17.1988H47.4602ZM41.5329 11.6234H36.6467L39.1106 4.90211L41.5329 11.6234Z" fill="white"/>
<path d="M59.4674 7.01212H53.443V0.807861H49.4382V17.1988H53.443V10.7081H59.4674V17.1988H63.493V0.807861H59.4674V7.01212Z" fill="white"/>
<path d="M74.355 17.4993C77.0758 17.4993 79.7063 16.4723 81.5178 14.1317L79.0747 11.5536C77.9364 13.0068 76.4442 13.8243 74.6118 13.8243C71.8634 13.8243 70.0727 11.854 70.0727 9.0034C70.0727 6.16676 71.8634 4.17553 74.5424 4.17553C76.1665 4.17553 77.631 4.95107 78.7276 6.33445L81.1707 3.75633C79.2621 1.57645 76.9369 0.500488 74.2856 0.500488C69.2329 0.500488 65.9777 4.22444 65.9777 9.0034C65.9777 13.8941 69.2815 17.4993 74.355 17.4993Z" fill="white"/>
<path d="M128.249 17.199V0.801025H129.651V15.8366H137.903V17.199H128.249Z" fill="white"/>
<path d="M141.533 17.199V0.801025H142.928V17.199H141.533Z" fill="white"/>
<path d="M148.127 17.199V0.801025H149.39L159.759 14.7396V0.801025H161.133V17.199H159.884L149.522 3.28133V17.199H148.127Z" fill="white"/>
<path d="M166.332 17.199V0.801025H176.202V2.11454H167.727V8.18605H175.591V9.47162H167.727V15.8575H176.5V17.199H166.332Z" fill="white"/>
</svg>
