<svg width="24" height="24" viewBox="0 0 24 24" fill="none" xmlns="http://www.w3.org/2000/svg">
<path d="M15.375 10.475C15.6583 10.475 15.9042 10.375 16.1125 10.175C16.3208 9.975 16.425 9.725 16.425 9.425C16.425 9.125 16.325 8.875 16.125 8.675C15.925 8.475 15.675 8.375 15.375 8.375C15.075 8.375 14.8292 8.475 14.6375 8.675C14.4458 8.875 14.35 9.125 14.35 9.425C14.35 9.725 14.4458 9.975 14.6375 10.175C14.8292 10.375 15.075 10.475 15.375 10.475ZM8.625 10.475C8.925 10.475 9.17083 10.375 9.3625 10.175C9.55417 9.975 9.65 9.725 9.65 9.425C9.65 9.125 9.55417 8.875 9.3625 8.675C9.17083 8.475 8.925 8.375 8.625 8.375C8.34167 8.375 8.09583 8.475 7.8875 8.675C7.67917 8.875 7.575 9.125 7.575 9.425C7.575 9.725 7.675 9.975 7.875 10.175C8.075 10.375 8.325 10.475 8.625 10.475ZM12 16.875C12.85 16.875 13.6833 16.65 14.5 16.2C15.3167 15.75 15.9583 15.0417 16.425 14.075H15.6C15.2333 14.7083 14.7333 15.2083 14.1 15.575C13.4667 15.9417 12.7667 16.125 12 16.125C11.25 16.125 10.5542 15.9458 9.9125 15.5875C9.27083 15.2292 8.775 14.725 8.425 14.075H7.575C8.05833 15.0417 8.70417 15.75 9.5125 16.2C10.3208 16.65 11.15 16.875 12 16.875ZM12 21C10.75 21 9.58333 20.7625 8.5 20.2875C7.41667 19.8125 6.46667 19.1667 5.65 18.35C4.83333 17.5333 4.1875 16.5833 3.7125 15.5C3.2375 14.4167 3 13.25 3 12C3 10.75 3.2375 9.57917 3.7125 8.4875C4.1875 7.39583 4.83333 6.44583 5.65 5.6375C6.46667 4.82917 7.41667 4.1875 8.5 3.7125C9.58333 3.2375 10.75 3 12 3C13.25 3 14.4208 3.2375 15.5125 3.7125C16.6042 4.1875 17.5542 4.82917 18.3625 5.6375C19.1708 6.44583 19.8125 7.39583 20.2875 8.4875C20.7625 9.57917 21 10.75 21 12C21 13.25 20.7625 14.4167 20.2875 15.5C19.8125 16.5833 19.1708 17.5333 18.3625 18.35C17.5542 19.1667 16.6042 19.8125 15.5125 20.2875C14.4208 20.7625 13.25 21 12 21ZM12 20.225C14.2833 20.225 16.225 19.425 17.825 17.825C19.425 16.225 20.225 14.2833 20.225 12C20.225 9.71667 19.4292 7.775 17.8375 6.175C16.2458 4.575 14.3083 3.775 12.025 3.775C9.74167 3.775 7.79583 4.57083 6.1875 6.1625C4.57917 7.75417 3.775 9.69167 3.775 11.975C3.775 14.2583 4.575 16.2042 6.175 17.8125C7.775 19.4208 9.71667 20.225 12 20.225Z" fill="white"/>
</svg>
