<svg width="50" height="50" viewBox="0 0 50 50" fill="none" xmlns="http://www.w3.org/2000/svg">
<g clip-path="url(#clip0_1_539)">
<path fill-rule="evenodd" clip-rule="evenodd" d="M11.4732 0.0637571C9.26495 0.308977 8.65154 -0.0588527 6.13656 0.922026C4.57236 1.53507 3.40688 2.51595 2.51744 3.55814C0.155806 6.2249 0.0331242 9.44341 0.0331242 13.5508C0.0331242 17.7196 0.0331242 21.8883 0.0331242 26.057C0.0331242 30.1951 -0.0588874 34.4251 0.0637947 38.5326C0.155806 42.0576 0.799888 45.2761 3.56024 47.4831C6.53528 49.874 9.01959 49.9353 13.6202 49.9353L32.3599 49.9659C35.6723 49.9659 40.9476 50.2725 43.8613 49.0464C46.9284 47.8203 48.7993 45.3987 49.5967 42.2722C49.9954 40.6782 49.9648 38.1341 49.9648 36.3869V17.6583C49.9648 14.2558 50.2715 9.07558 49.0753 6.04098C48.4926 4.63097 47.3884 3.28226 46.407 2.45465C43.5239 0.125062 40.8249 0.0331046 36.3777 0.0331046C35.3656 0.0331046 12.5467 -0.0588527 11.4732 0.0637571Z" fill="#00ACED"/>
<path fill-rule="evenodd" clip-rule="evenodd" d="M36.8379 13.5811C35.3963 13.857 29.5383 16.4318 27.7901 17.1368C22.8828 19.1292 17.9755 21.3975 13.0375 23.4818C12.2708 23.819 10.4305 24.6466 11.4733 25.5969C12.0561 26.0873 13.7429 26.4858 14.6324 26.7004C17.7608 27.528 18.3742 28.0491 21.1039 26.2712C21.9626 25.7195 22.7294 25.1064 23.5575 24.5547C24.4163 23.9723 25.1217 23.5125 26.0725 22.8688C26.9313 22.2558 27.7287 21.6734 28.5875 21.1216C29.4156 20.5699 30.3357 19.8649 31.1331 19.4357C31.8386 19.0679 32.268 19.589 31.7772 20.1714C31.0718 21.0297 27.3913 24.4627 26.4405 25.321L24.2323 27.3441C21.8093 29.6123 23.8336 30.348 26.0112 31.8193C27.698 32.9228 29.5076 34.0876 31.0718 35.2217C36.3165 38.9613 36.0711 33.2906 36.5925 30.4093C37.2059 26.9456 37.758 22.9608 38.2794 19.497C38.4634 18.2709 38.6781 16.9835 38.8008 15.7881C38.9541 14.2861 38.4021 13.3052 36.8379 13.5811Z" fill="#FEFEFF"/>
</g>
<defs>
<clipPath id="clip0_1_539">
<rect width="50" height="50" fill="white"/>
</clipPath>
</defs>
</svg>
