<svg width="473" height="473" viewBox="0 0 473 473" fill="none" xmlns="http://www.w3.org/2000/svg">
<g clip-path="url(#clip0_1_471)">
<path fill-rule="evenodd" clip-rule="evenodd" d="M236.5 0C367.118 0 473 105.882 473 236.5C473 367.118 367.118 473 236.5 473C105.882 473 0 367.118 0 236.5C0 105.882 105.882 0 236.5 0ZM236.5 92.3283C316.124 92.3283 380.672 156.876 380.672 236.5C380.672 316.124 316.124 380.672 236.5 380.672C156.876 380.672 92.3283 316.124 92.3283 236.5C92.3283 156.876 156.876 92.3283 236.5 92.3283Z" fill="url(#paint0_linear_1_471)"/>
<path d="M415 355L435 365" stroke="white"/>
<path d="M404 349C404 354.185 398.774 359 391.5 359C384.226 359 379 354.185 379 349C379 343.815 384.226 339 391.5 339C398.774 339 404 343.815 404 349Z" stroke="white" stroke-width="4"/>
<path d="M386 349C386 354.185 380.774 359 373.5 359C366.226 359 361 354.185 361 349C361 343.815 366.226 339 373.5 339C380.774 339 386 343.815 386 349Z" stroke="white" stroke-width="4"/>
<path d="M457 255H473" stroke="white"/>
<line x1="441.834" y1="156.529" x2="458.834" y2="150.529" stroke="white"/>
<path d="M404.011 267.385C402.261 267.385 400.581 267.152 398.971 266.685C397.361 266.195 396.077 265.553 395.121 264.76L397.081 259.965C399.111 261.388 401.339 262.1 403.766 262.1C406.286 262.1 407.546 261.237 407.546 259.51C407.546 257.923 406.426 257.13 404.186 257.13H399.881V252.02H403.556C404.559 252.02 405.341 251.81 405.901 251.39C406.484 250.97 406.776 250.363 406.776 249.57C406.776 248.007 405.691 247.225 403.521 247.225C401.304 247.225 399.297 247.937 397.501 249.36L395.506 244.67C396.556 243.807 397.839 243.142 399.356 242.675C400.896 242.185 402.494 241.94 404.151 241.94C406.904 241.94 409.051 242.547 410.591 243.76C412.131 244.95 412.901 246.607 412.901 248.73C412.901 249.99 412.586 251.098 411.956 252.055C411.326 253.012 410.451 253.712 409.331 254.155C410.707 254.552 411.769 255.275 412.516 256.325C413.286 257.375 413.671 258.647 413.671 260.14C413.671 262.38 412.807 264.153 411.081 265.46C409.377 266.743 407.021 267.385 404.011 267.385ZM419.677 272.425L417.332 270.57C418.592 269.31 419.374 268.12 419.677 267H416.737V260.63H423.212V264.655C423.212 266.125 422.944 267.455 422.407 268.645C421.894 269.858 420.984 271.118 419.677 272.425ZM435.093 267.385C433.46 267.385 431.838 267.152 430.228 266.685C428.641 266.195 427.381 265.553 426.448 264.76L428.408 259.965C430.485 261.388 432.666 262.1 434.953 262.1C436.143 262.1 437.065 261.843 437.718 261.33C438.371 260.817 438.698 260.093 438.698 259.16C438.698 258.25 438.383 257.527 437.753 256.99C437.123 256.43 436.283 256.15 435.233 256.15C433.716 256.15 432.363 256.687 431.173 257.76H427.148V242.325H443.248V247.54H433.203V251.915C434.276 251.332 435.513 251.04 436.913 251.04C438.476 251.04 439.853 251.378 441.043 252.055C442.233 252.708 443.155 253.63 443.808 254.82C444.485 256.01 444.823 257.398 444.823 258.985C444.823 260.665 444.426 262.147 443.633 263.43C442.84 264.69 441.72 265.67 440.273 266.37C438.826 267.047 437.1 267.385 435.093 267.385Z" fill="white"/>
<path d="M393.193 172V167.232H398.217V155.872L394.409 158.048L392.265 153.792L399.945 149.44H404.073V167.232H408.777V172H393.193ZM419.644 172V168.224H410.492V164.096L420.572 149.44H425.308V163.776H428.252V168.224H425.308V172H419.644ZM419.644 163.776V157.728L415.58 163.776H419.644Z" fill="white"/>
</g>
<defs>
<linearGradient id="paint0_linear_1_471" x1="236.5" y1="0" x2="236.5" y2="473" gradientUnits="userSpaceOnUse">
<stop stop-color="#0094FF"/>
<stop offset="1" stop-color="#79096E"/>
</linearGradient>
<clipPath id="clip0_1_471">
<rect width="473" height="473" fill="white"/>
</clipPath>
</defs>
</svg>
