<svg width="14" height="14" viewBox="0 0 14 14" fill="none" xmlns="http://www.w3.org/2000/svg">
<path d="M5.36667 1.38538V0.729126H8.63333V1.38538H5.36667ZM6.66458 7.91871H7.33542V4.73954H6.66458V7.91871ZM7 12.527C6.31945 12.527 5.67778 12.3958 5.075 12.1333C4.47222 11.8708 3.94722 11.5159 3.5 11.0687C3.05278 10.6215 2.69792 10.0965 2.43542 9.49371C2.17292 8.89093 2.04167 8.24926 2.04167 7.56871C2.04167 6.88815 2.17292 6.24892 2.43542 5.651C2.69792 5.05308 3.05278 4.52808 3.5 4.076C3.94722 3.62392 4.47222 3.26663 5.075 3.00413C5.67778 2.74163 6.31945 2.61038 7 2.61038C7.62222 2.61038 8.20799 2.71732 8.75729 2.93121C9.3066 3.1451 9.8 3.44163 10.2375 3.82079L10.9083 3.14996L11.3896 3.63121L10.7188 4.30204C11.0688 4.69093 11.3628 5.1576 11.601 5.70204C11.8392 6.24649 11.9583 6.86871 11.9583 7.56871C11.9583 8.24926 11.8271 8.89093 11.5646 9.49371C11.3021 10.0965 10.9472 10.6215 10.5 11.0687C10.0528 11.5159 9.52778 11.8708 8.925 12.1333C8.32222 12.3958 7.68056 12.527 7 12.527Z" fill="white"/>
</svg>
