<svg width="13" height="14" viewBox="0 0 13 14" fill="none" xmlns="http://www.w3.org/2000/svg">
<path d="M8.44999 11.4916C8.64861 11.4916 8.82013 11.4138 8.96458 11.2583C9.10902 11.1027 9.18124 10.918 9.18124 10.7041V5.78952C9.18124 5.68258 9.16093 5.5805 9.12031 5.48327C9.07968 5.38605 9.02777 5.29855 8.96458 5.22077L6.25624 2.28952C6.20208 2.22147 6.13888 2.17772 6.06666 2.15827C5.99444 2.13883 5.92673 2.14369 5.86354 2.17286C5.80937 2.20202 5.76874 2.2555 5.74166 2.33327C5.71458 2.41105 5.71006 2.50341 5.72812 2.61036L6.2427 5.45411H1.97708C1.78749 5.45411 1.61822 5.53431 1.46926 5.69473C1.32031 5.85515 1.24583 6.03744 1.24583 6.24161V6.83952C1.24583 6.90758 1.2526 6.98049 1.26614 7.05827C1.27968 7.13605 1.29548 7.19924 1.31354 7.24786L2.73541 10.8645C2.80763 11.0395 2.92951 11.1878 3.10104 11.3093C3.27256 11.4308 3.44861 11.4916 3.62916 11.4916H8.44999ZM10.4948 11.4916C10.6934 11.4916 10.8627 11.4163 11.0026 11.2656C11.1425 11.1149 11.2125 10.9326 11.2125 10.7187V6.22702C11.2125 6.02286 11.1425 5.843 11.0026 5.68744C10.8627 5.53188 10.6934 5.45411 10.4948 5.45411H10.1969C9.99826 5.45411 9.82899 5.53188 9.68906 5.68744C9.54913 5.843 9.47916 6.02286 9.47916 6.22702V10.7333C9.47916 10.9472 9.54913 11.127 9.68906 11.2729C9.82899 11.4187 9.99826 11.4916 10.1969 11.4916H10.4948Z" fill="white"/>
</svg>
